<svg id="Layer_1" height="512" viewBox="0 0 66 66" width="512" xmlns="http://www.w3.org/2000/svg"><g><path d="m60.3 10.2c-4-3.3-10.5-2.4-15.5-1-3.1-5.3-7.3-8.2-11.8-8.2s-8.7 2.9-11.9 8.3c-5-1.4-11.5-2.3-15.5 1-6.6 5.3-.8 16 4.6 22.7-5.4 6.7-11.2 17.4-4.5 22.8 4 3.3 10.5 2.4 15.5 1 3.1 5.3 7.3 8.2 11.8 8.2s8.7-2.9 11.9-8.3c5 1.4 11.5 2.3 15.5-1 6.6-5.4.8-16.1-4.6-22.8 5.4-6.5 11.2-17.3 4.5-22.7zm-2.4 42.6c-2.7 2.2-7.9 1.3-11.2.5 1.8-4.1 3-8.9 3.5-14.2 1.1-1 2.1-2 3-3.1 3.5 4.4 8.9 13.3 4.7 16.8zm-24.9 8.3c-2.9 0-5.7-2-8.1-5.6 2.6-1 5.3-2.3 8.1-3.8 2.8 1.5 5.5 2.8 8.1 3.8-2.4 3.6-5.2 5.6-8.1 5.6zm-24.9-8.3c-4.2-3.5 1.2-12.4 4.7-16.8.9 1 1.9 2 3 3.1.5 5.2 1.7 10.1 3.5 14.2-3.3.8-8.5 1.6-11.2-.5zm0-39.6c2.6-2.2 7.9-1.3 11.2-.5-1.8 4.1-3 8.9-3.5 14.2-1.1 1-2.1 2-3 3.1-3.5-4.4-8.9-13.3-4.7-16.8zm24.9-8.3c2.9 0 5.7 2 8.1 5.6-2.6 1-5.3 2.3-8.1 3.8-2.8-1.5-5.5-2.8-8.1-3.8 2.4-3.6 5.2-5.6 8.1-5.6zm24.9 8.3c1 .8 1.5 2 1.5 3.6 0 3.4-2.3 8.1-6.2 13.2-.9-1-1.9-2-3-3.1-.5-5.2-1.7-10.1-3.5-14.2 3.3-.8 8.5-1.6 11.2.5zm-24.9 34c-4.7-2.8-9.3-6.2-13.4-10-.2-2.8-.2-5.6 0-8.5 4.1-3.8 8.8-7.2 13.4-10 4.7 2.8 9.3 6.2 13.4 10 .2 2.8.2 5.6 0 8.5-4.1 3.9-8.8 7.3-13.4 10zm3.9-30.6c2.1-1 4.1-1.9 6-2.6 1.2 2.6 2.1 5.7 2.7 9-2.4-2.1-5.5-4.4-8.7-6.4zm-7.8 0c-3.2 2-6.2 4.2-8.8 6.3.6-3.3 1.6-6.4 2.7-9 2 .8 4 1.7 6.1 2.7zm0 32.8c-2.1 1-4.1 1.9-6 2.6-1.2-2.6-2.1-5.7-2.7-9 2.5 2.2 5.5 4.4 8.7 6.4zm7.8 0c3.2-2 6.2-4.2 8.8-6.3-.6 3.3-1.6 6.3-2.7 9-2-.8-4-1.7-6.1-2.7z"/><path d="m33 26.4c-3.9 0-7.1 3-7.1 6.6s3.2 6.6 7.1 6.6 7.1-3 7.1-6.6-3.2-6.6-7.1-6.6z"/></g></svg>